#N canvas 2099 170 1074 685 12;
#X obj 20 40 bng 15 250 50 0 empty empty empty 17 7 0 10 #fcfcfc #000000
#000000;
#X msg 20 124 read -resize \$1 test-array;
#X obj 20 94 openpanel;
#N canvas 0 0 450 300 (subpatch) 0;
#X array test-array 65143 float 0 black black;
#X coords 0 1 65142 -1 400 140 1;
#X restore 330 30 graph;
#X obj 20 153 soundfiler;
#X floatatom 20 180 12 0 0 0 - - -, f 12;
#X obj 20 64 getdir;
#X text 110 70 open sound file;
#X obj 110 510 output~;
#X obj 110 480 tabread4~ test-array;
#X floatatom 20 239 9 0 0 0 - - -, f 9;
#X text 120 180 samples in file;
#X obj 20 210 / 44.1;
#X text 100 240 converted to ms (@ 44.1 kHz samplerate);
#X obj 130 150 bng 15 250 50 0 empty empty empty 17 7 0 10 #fcfcfc
#000000 #000000;
#X obj 496 329 vline~;
#X obj 496 420 snapshot~;
#X obj 506 393 metro 100;
#X obj 506 371 loadbang;
#X obj 594 359 bng 15 250 50 0 empty empty empty 17 7 0 10 #fcfcfc
#000000 #000000;
#X floatatom 496 449 5 0 0 0 - - -, f 5;
#X obj 500 510 *;
#X floatatom 500 539 18 0 0 0 - - -, f 18;
#X obj 490 290 f;
#X obj 490 210 bng 15 250 50 0 empty empty empty 17 7 0 10 #fcfcfc
#000000 #000000;
#X msg 430 290 0;
#X obj 540 290 f;
#X obj 490 234 t b b;
#X floatatom 570 240 5 0 0 0 - - -, f 5;
#X text 610 240 Playback speed?;
#X obj 330 180 hsl 395 15 0 1 0 0 empty playpos empty -2 -8 0 10 #fcfcfc
#000000 #000000 39400 1;
#X obj 540 480 s playpos;
#X obj 410 390 *~;
#X connect 0 0 6 0;
#X connect 1 0 4 0;
#X connect 2 0 1 0;
#X connect 4 0 5 0;
#X connect 5 0 12 0;
#X connect 5 0 21 1;
#X connect 5 0 32 1;
#X connect 6 0 2 0;
#X connect 9 0 8 0;
#X connect 10 0 26 1;
#X connect 12 0 10 0;
#X connect 14 0 5 0;
#X connect 15 0 16 0;
#X connect 15 0 32 0;
#X connect 16 0 20 0;
#X connect 17 0 16 0;
#X connect 18 0 17 0;
#X connect 19 0 17 0;
#X connect 20 0 21 0;
#X connect 20 0 31 0;
#X connect 21 0 22 0;
#X connect 23 0 15 0;
#X connect 24 0 27 0;
#X connect 25 0 15 0;
#X connect 26 0 15 1;
#X connect 27 0 23 0;
#X connect 27 1 26 0;
#X connect 28 0 23 1;
#X connect 32 0 9 0;
